<svg width="143" height="27" viewBox="0 0 143 27" fill="none" xmlns="http://www.w3.org/2000/svg">
<path d="M23.8329 16.493C28.9318 17.4339 32.4 19.2861 32.4 21.4178C32.4 24.5025 25.1464 27 16.2 27C7.25355 27 0 24.5012 0 21.4178C0 19.2861 3.4695 17.4339 8.5671 16.493C10.7824 17.0681 13.3987 17.3988 16.2 17.3988C19.0012 17.3988 21.6175 17.0681 23.8329 16.4943V16.493ZM21.8808 7.452C26.2116 8.1729 29.1951 9.68895 29.1951 11.4453C29.1951 13.8955 23.3766 15.8828 16.2 15.8828C9.0234 15.8828 3.2049 13.8955 3.2049 11.4453C3.2049 9.6903 6.1884 8.1729 10.5192 7.452C12.1837 7.87455 14.125 8.1162 16.2 8.1162C18.2749 8.1162 20.2162 7.8732 21.8808 7.452V7.452ZM16.2594 0C21.6337 0 25.9915 1.5039 25.9915 3.36015C25.9915 5.21505 21.6337 6.71895 16.2594 6.71895C10.885 6.71895 6.52725 5.21505 6.52725 3.36015C6.52725 1.5039 10.885 0 16.2594 0ZM53.0536 22.2615C54.405 22.2615 55.5268 22.0523 56.4192 21.6324C57.3102 21.2139 57.9784 20.6388 58.4212 19.9111C58.8684 19.168 59.0984 18.3146 59.0854 17.4474C59.0854 16.5496 58.9018 15.7856 58.5333 15.1524C58.1933 14.5487 57.7044 14.0421 57.1131 13.6809C56.5673 13.3431 55.9462 13.146 55.3054 13.1071V12.933C55.8632 12.8026 56.3925 12.5716 56.8674 12.2512C57.3331 11.9353 57.7044 11.5223 57.9811 11.0133C58.2565 10.5044 58.3956 9.8901 58.3956 9.17055C58.3956 8.29575 58.1836 7.5141 57.7611 6.82425C57.3385 6.13305 56.7027 5.58765 55.8535 5.18805C55.0057 4.78845 53.9419 4.58865 52.6648 4.58865H45.9V22.2602H53.0536V22.2615ZM52.2679 12.1055H49.1008V7.2306H52.3368C53.2818 7.2306 53.9932 7.452 54.4725 7.8948C54.9531 8.3376 55.1934 8.9019 55.1934 9.58635C55.1934 10.1047 55.0651 10.5516 54.81 10.9283C54.5535 11.3063 54.2038 11.5952 53.761 11.8004C53.2916 12.0097 52.7819 12.1138 52.2679 12.1055V12.1055ZM52.5447 19.5872H49.1022V14.4099H52.6311C53.2926 14.4099 53.8623 14.5314 54.3388 14.7771C54.8167 15.0201 55.1853 15.3549 55.4445 15.7775C55.7023 16.2 55.8319 16.6739 55.8319 17.1977C55.8319 17.8997 55.5754 18.4734 55.0597 18.9189C54.5454 19.3644 53.707 19.5872 52.5447 19.5872ZM64.8742 22.5301C65.5641 22.5301 66.1662 22.4343 66.6819 22.2413C67.1962 22.0482 67.6255 21.7931 67.9671 21.4731C68.31 21.1545 68.5746 20.8103 68.7663 20.4417H68.8689V22.2628H71.8726V13.392C71.8726 12.5118 71.712 11.7788 71.3934 11.1915C71.0953 10.6283 70.6603 10.1492 70.1284 9.7983C69.5982 9.45284 69.0115 9.20292 68.395 9.05985C67.7701 8.91127 67.1299 8.83606 66.4875 8.83575C65.5614 8.83575 64.7149 8.9721 63.9495 9.24615C63.217 9.49916 62.5531 9.91824 62.0095 10.4706C61.4659 11.0393 61.0741 11.7357 60.8701 12.4956L63.7861 12.9087C63.9414 12.4538 64.2424 12.0596 64.6879 11.7261C65.1334 11.3927 65.7396 11.2266 66.505 11.2266C67.23 11.2266 67.7848 11.4048 68.1696 11.7612C68.5557 12.1176 68.7487 12.6212 68.7487 13.2705V13.3232C68.7487 13.6215 68.638 13.8415 68.4166 13.9833C68.1952 14.1237 67.8429 14.2263 67.3596 14.2938C66.8763 14.36 66.2458 14.4329 65.4696 14.5139C64.8397 14.5803 64.2154 14.6912 63.6012 14.8459C63.0309 14.9853 62.4851 15.2106 61.9825 15.5142C61.511 15.8018 61.1217 16.2064 60.8526 16.6887C60.5758 17.1774 60.4381 17.7957 60.4381 18.5436C60.4381 19.4117 60.6325 20.1433 61.0213 20.736C61.4088 21.3273 61.9393 21.7755 62.6089 22.0766C63.2785 22.379 64.0345 22.5301 64.8742 22.5301V22.5301ZM65.6842 20.2352C65.0349 20.2352 64.5003 20.088 64.0804 19.7951C63.6606 19.5008 63.45 19.0661 63.45 18.4923C63.45 18.0887 63.5566 17.7592 63.7699 17.5041C63.9819 17.2476 64.2721 17.0478 64.6407 16.9034C65.0441 16.7507 65.4642 16.6465 65.8921 16.5929L66.6252 16.4903C66.9087 16.4498 67.1922 16.4039 67.4797 16.3512C67.7673 16.2999 68.0278 16.2391 68.2614 16.1703C68.4936 16.1014 68.6596 16.0272 68.7568 15.9462V17.5082C68.7568 17.9969 68.6313 18.4491 68.3815 18.8622C68.1227 19.285 67.7541 19.6297 67.315 19.8599C66.856 20.1096 66.312 20.2352 65.6856 20.2352H65.6842ZM77.4697 22.2628V4.59H74.3472V22.2615H77.4711L77.4697 22.2628ZM83.8201 22.5301C84.51 22.5301 85.1134 22.4343 85.6278 22.2413C86.1421 22.0482 86.5714 21.7931 86.913 21.4731C87.2559 21.1545 87.5218 20.8103 87.7122 20.4417H87.8148V22.2628H90.8185V13.392C90.8185 12.5118 90.6579 11.7788 90.3393 11.1915C90.0416 10.6285 89.6071 10.1494 89.0757 9.7983C88.545 9.4527 87.9579 9.20277 87.3409 9.05985C86.716 8.91127 86.0758 8.83606 85.4334 8.83575C84.5073 8.83575 83.6622 8.9721 82.8954 9.24615C82.1629 9.49916 81.499 9.91824 80.9554 10.4706C80.4118 11.0393 80.02 11.7357 79.816 12.4956L82.732 12.9087C82.8873 12.4538 83.1883 12.0596 83.6338 11.7261C84.0793 11.3927 84.6868 11.2266 85.4509 11.2266C86.1759 11.2266 86.7307 11.4048 87.1168 11.7612C87.5016 12.1176 87.6946 12.6212 87.6946 13.2705V13.3232C87.6946 13.6215 87.5839 13.8415 87.3625 13.9833C87.1411 14.1237 86.7888 14.2263 86.3055 14.2938C85.8222 14.36 85.1917 14.4329 84.4155 14.5139C83.7856 14.5803 83.1613 14.6912 82.5471 14.8459C81.9768 14.9853 81.431 15.2106 80.9284 15.5142C80.4569 15.8018 80.0676 16.2064 79.7985 16.6887C79.5231 17.1774 79.384 17.7957 79.384 18.5436C79.384 19.4117 79.5784 20.1433 79.9672 20.736C80.3547 21.3273 80.8852 21.7755 81.5548 22.0766C82.2244 22.379 82.9804 22.5301 83.8201 22.5301V22.5301ZM84.6301 20.2352C83.9821 20.2352 83.4462 20.088 83.0263 19.7951C82.6065 19.5008 82.3959 19.0661 82.3959 18.4923C82.3959 18.0887 82.5025 17.7592 82.7158 17.5041C82.9278 17.2476 83.218 17.0478 83.5866 16.9034C83.99 16.7507 84.4101 16.6465 84.838 16.5929L85.5711 16.4903C85.8546 16.4498 86.1381 16.4039 86.4256 16.3512C86.7132 16.2999 86.9737 16.2391 87.2073 16.1703C87.4395 16.1014 87.6055 16.0272 87.7027 15.9462V17.5082C87.7027 17.9969 87.5785 18.4491 87.3274 18.8622C87.0686 19.285 86.7 19.6297 86.2609 19.8599C85.8019 20.1096 85.2579 20.2352 84.6315 20.2352H84.6301ZM96.4156 22.2628V14.4963C96.4156 13.8578 96.5371 13.3137 96.7747 12.8655C97.0137 12.4173 97.3444 12.073 97.767 11.8341C98.2121 11.5899 98.7134 11.4665 99.2209 11.4764C100.027 11.4764 100.657 11.7261 101.115 12.227C101.573 12.7265 101.801 13.4204 101.801 14.306V22.2628H104.925V13.8227C104.931 12.7643 104.745 11.8652 104.368 11.1227C103.99 10.3802 103.463 9.81315 102.781 9.42165C102.099 9.03015 101.301 8.83575 100.386 8.83575C99.3964 8.83575 98.5662 9.05445 97.8966 9.49185C97.2378 9.91562 96.7269 10.5336 96.4345 11.2603H96.2779V9.00855H93.2931V22.2628H96.417H96.4156ZM113.216 22.5221C114.326 22.5221 115.293 22.3196 116.115 21.9132C116.906 21.5356 117.58 20.9511 118.066 20.2217C118.543 19.4994 118.819 18.6692 118.894 17.7323H115.908C115.833 18.1709 115.659 18.5867 115.399 18.9486C115.152 19.2834 114.846 19.5372 114.481 19.7127C114.114 19.8882 113.702 19.976 113.242 19.976C112.591 19.976 112.027 19.8018 111.546 19.4535C111.066 19.1052 110.693 18.6084 110.429 17.9604C110.164 17.3138 110.032 16.5389 110.032 15.6357C110.032 14.7447 110.165 13.9793 110.433 13.3407C110.7 12.7022 111.075 12.2107 111.559 11.8692C112.042 11.5263 112.603 11.3562 113.242 11.3562C113.995 11.3562 114.597 11.5695 115.05 11.9988C115.501 12.4267 115.787 12.96 115.908 13.5986H118.894C118.824 12.6441 118.543 11.8084 118.048 11.0916C117.546 10.3692 116.859 9.79451 116.059 9.42705C115.228 9.03285 114.275 8.83575 113.197 8.83575C111.904 8.83575 110.784 9.12465 109.837 9.70245C108.89 10.2819 108.127 11.1204 107.641 12.119C107.124 13.1517 106.865 14.3411 106.865 15.687C106.865 17.0276 107.12 18.2115 107.629 19.2375C108.138 20.2649 108.865 21.0695 109.812 21.65C110.758 22.2305 111.893 22.5221 113.216 22.5221V22.5221ZM126.658 22.5221C127.688 22.5221 128.602 22.3654 129.403 22.0509C130.202 21.7377 130.86 21.2949 131.374 20.7225C131.89 20.1501 132.238 19.4778 132.423 18.707L129.507 18.3789C129.368 18.7529 129.164 19.0674 128.894 19.3199C128.624 19.5737 128.304 19.7654 127.935 19.8936C127.538 20.0278 127.121 20.0935 126.702 20.088C126.022 20.088 125.43 19.9436 124.924 19.652C124.414 19.3577 124.003 18.9195 123.742 18.3924C123.459 17.8429 123.318 17.1828 123.318 16.4119L123.32 16.4903H132.552V15.5318C132.552 14.3708 132.39 13.3677 132.069 12.524C131.746 11.6816 131.305 10.9877 130.745 10.4409C130.196 9.90181 129.536 9.48821 128.812 9.2286C128.068 8.96408 127.284 8.83115 126.495 8.83575C125.229 8.83575 124.127 9.12465 123.189 9.70245C122.247 10.2858 121.489 11.1234 121.002 12.119C120.481 13.1517 120.222 14.3492 120.222 15.7127C120.222 17.0991 120.479 18.3033 120.998 19.3239C121.515 20.3459 122.256 21.1329 123.22 21.6891C124.184 22.244 125.33 22.5221 126.658 22.5221V22.5221ZM123.333 14.2817C123.374 13.8011 123.506 13.3528 123.729 12.9384C123.996 12.4416 124.371 12.038 124.855 11.7302C125.359 11.4163 125.944 11.2559 126.538 11.2685C127.136 11.2685 127.661 11.4035 128.112 11.6735C128.565 11.9448 128.917 12.3147 129.169 12.7832C129.423 13.253 129.551 13.7862 129.558 14.3842H123.327L123.333 14.2817ZM137.642 22.2628V14.4707C137.642 13.9064 137.772 13.4096 138.029 12.9776C138.289 12.5456 138.644 12.2081 139.096 11.9637C139.567 11.7143 140.094 11.588 140.627 11.5965C140.891 11.5965 141.167 11.6154 141.45 11.6532C141.736 11.691 141.944 11.7315 142.077 11.7788V8.9046C141.898 8.87155 141.718 8.8499 141.537 8.8398C141.343 8.82624 141.15 8.81904 140.956 8.8182C140.196 8.8182 139.521 9.02745 138.931 9.4446C138.341 9.8604 137.927 10.4517 137.685 11.2172H137.546V9.00855H134.518V22.2628H137.642V22.2628Z" fill="white"/>
</svg>
